<?xml version="1.0" encoding="UTF-8"?>
<!-- Generator: visioncortex VTracer 0.6.3 -->
<svg version="1.1" xmlns="http://www.w3.org/2000/svg" width="1280" height="354">
<path d="M0 0 C2.35 -0.38 2.35 -0.38 5.32 -0.39 C6.43 -0.4 7.54 -0.41 8.69 -0.42 C10.5 -0.41 10.5 -0.41 12.34 -0.4 C14.19 -0.4 14.19 -0.4 16.08 -0.41 C19.36 -0.41 22.64 -0.4 25.92 -0.38 C27.93 -0.38 29.95 -0.38 31.96 -0.39 C35.81 -0.41 39.67 -0.41 43.53 -0.4 C44.73 -0.4 45.93 -0.41 47.17 -0.42 C48.85 -0.4 48.85 -0.4 50.55 -0.39 C52.02 -0.38 52.02 -0.38 53.53 -0.38 C56 0 56 0 57.82 1.15 C59.52 3.82 59.36 5.87 59.34 9.03 C59.34 10.89 59.34 10.89 59.34 12.79 C59.32 14.15 59.31 15.5 59.29 16.86 C59.29 18.24 59.28 19.63 59.28 21.01 C59.27 24.66 59.24 28.3 59.21 31.95 C59.18 35.67 59.16 39.39 59.15 43.11 C59.12 50.41 59.06 57.7 59 65 C74.84 64.67 90.68 64.34 107 64 C107 63.67 107 63.34 107 63 C108.62 62.97 110.25 62.95 111.88 62.94 C112.78 62.93 113.68 62.91 114.62 62.9 C117 63 117 63 119 64 C119 63.21 119 62.43 118.99 61.62 C118.97 54.21 118.96 46.81 118.95 39.41 C118.94 35.6 118.94 31.8 118.92 27.99 C118.91 24.32 118.91 20.65 118.91 16.98 C118.9 15.58 118.9 14.18 118.89 12.77 C118.89 10.81 118.89 8.86 118.89 6.9 C118.88 5.78 118.88 4.66 118.88 3.51 C119 1 119 1 120 0 C121.86 -0.11 123.73 -0.15 125.59 -0.16 C126.78 -0.17 127.98 -0.18 129.21 -0.19 C131.16 -0.2 131.16 -0.2 133.15 -0.2 C134.49 -0.21 135.83 -0.21 137.17 -0.22 C139.98 -0.23 142.79 -0.24 145.6 -0.24 C149.21 -0.25 152.81 -0.27 156.42 -0.3 C159.19 -0.32 161.95 -0.32 164.72 -0.32 C166.7 -0.33 168.67 -0.35 170.65 -0.37 C172.45 -0.36 172.45 -0.36 174.28 -0.36 C175.34 -0.36 176.4 -0.36 177.49 -0.37 C178.73 -0.19 178.73 -0.19 180 0 C182.31 3.47 182.25 4.8 182.26 8.89 C182.27 10.1 182.27 11.32 182.28 12.56 C182.27 14.53 182.27 14.53 182.27 16.53 C182.27 17.89 182.27 19.24 182.27 20.6 C182.27 23.44 182.27 26.28 182.26 29.12 C182.25 32.77 182.26 36.41 182.27 40.05 C182.28 42.85 182.27 45.65 182.27 48.45 C182.27 50.44 182.27 52.44 182.28 54.44 C182.27 56.25 182.27 56.25 182.26 58.11 C182.26 59.18 182.26 60.24 182.25 61.34 C182 64 182 64 180 67 C177.48 67.4 177.48 67.4 174.27 67.43 C173.05 67.45 171.83 67.47 170.57 67.49 C169.29 67.5 168 67.51 166.68 67.51 C164.91 67.54 164.91 67.54 163.11 67.56 C158.7 67.62 154.29 67.65 149.88 67.69 C140.02 67.79 130.16 67.89 120 68 C120.33 88.13 120.66 108.26 121 129 C150.7 129.5 150.7 129.5 181 130 C182.03 133.1 182.13 135.27 182.15 138.53 C182.15 139.66 182.16 140.79 182.16 141.95 C182.17 143.79 182.17 143.79 182.17 145.66 C182.17 146.91 182.17 148.16 182.18 149.46 C182.18 152.11 182.19 154.76 182.19 157.41 C182.19 160.81 182.2 164.21 182.22 167.61 C182.23 170.86 182.23 174.1 182.23 177.34 C182.24 178.57 182.24 179.79 182.25 181.05 C182.25 182.18 182.25 183.31 182.24 184.47 C182.24 185.47 182.25 186.47 182.25 187.5 C182 190 182 190 180 193 C177.44 193.36 177.44 193.36 174.17 193.34 C172.95 193.34 171.73 193.34 170.47 193.34 C169.14 193.32 167.8 193.31 166.46 193.29 C165.1 193.29 163.73 193.28 162.37 193.28 C158.77 193.27 155.18 193.24 151.59 193.21 C147.92 193.18 144.25 193.16 140.59 193.15 C133.39 193.11 126.2 193.06 119 193 C118.99 192.27 118.98 191.53 118.97 190.77 C118.87 183.86 118.77 176.94 118.66 170.03 C118.61 166.47 118.55 162.91 118.5 159.36 C118.45 155.27 118.38 151.19 118.32 147.1 C118.3 145.82 118.28 144.54 118.27 143.22 C118.24 141.45 118.24 141.45 118.21 139.64 C118.19 138.6 118.17 137.56 118.16 136.48 C118.16 134 118.16 134 117 132 C97.86 131.67 78.72 131.34 59 131 C59.01 135.31 59.02 139.62 59.04 144.05 C59.04 147.48 59.05 150.91 59.05 154.34 C59.06 157.97 59.06 161.59 59.08 165.21 C59.09 168.7 59.09 172.19 59.09 175.68 C59.1 177.66 59.11 179.64 59.11 181.63 C59.11 182.83 59.11 184.03 59.11 185.27 C59.12 186.33 59.12 187.39 59.12 188.48 C59 191 59 191 58 193 C38.53 193 19.06 193 -1 193 C-2.18 189.45 -2.14 186.25 -2.13 182.56 C-2.14 181.8 -2.14 181.03 -2.14 180.24 C-2.15 177.68 -2.15 175.11 -2.15 172.54 C-2.15 170.7 -2.15 168.87 -2.16 167.03 C-2.16 162.03 -2.17 157.03 -2.17 152.03 C-2.17 147.87 -2.17 143.7 -2.18 139.53 C-2.18 129.7 -2.19 119.87 -2.19 110.04 C-2.18 99.89 -2.2 89.74 -2.21 79.59 C-2.22 70.88 -2.23 62.18 -2.23 53.47 C-2.23 48.27 -2.23 43.06 -2.24 37.86 C-2.25 32.97 -2.25 28.07 -2.24 23.18 C-2.24 21.38 -2.25 19.58 -2.25 17.79 C-2.26 15.34 -2.25 12.89 -2.25 10.44 C-2.25 9.72 -2.26 9.01 -2.26 8.27 C-2.24 4.61 -2.09 3.13 0 0 Z M117 65 C117.99 66.49 117.99 66.49 119 68 C119 67.01 119 66.02 119 65 C118.34 65 117.68 65 117 65 Z " fill="#FCFCFC" transform="translate(704,96)"/>
<path d="M0 0 C1.26 -0 2.51 -0 3.8 -0 C4.46 -0 5.12 0 5.8 0 C7.8 0.01 9.81 0 11.82 -0 C13.7 -0 13.7 -0 15.62 0 C16.79 0 17.95 0 19.14 0 C21.81 0.13 21.81 0.13 22.81 1.13 C22.91 3.83 22.94 6.5 22.93 9.2 C22.93 10.46 22.93 10.46 22.92 11.75 C22.92 14.54 22.91 17.34 22.9 20.14 C22.9 22.1 22.89 24.06 22.89 26.02 C22.85 44.82 22.65 63.62 22.41 82.42 C22.35 87.01 22.3 91.6 22.24 96.2 C22.14 104.82 22.03 113.44 21.92 122.05 C21.8 131.9 21.68 141.75 21.56 151.59 C21.31 171.77 21.06 191.95 20.81 212.13 C18.34 213.37 16.67 213.26 13.91 213.27 C12.45 213.27 12.45 213.27 10.96 213.27 C9.94 213.27 8.92 213.26 7.88 213.26 C6.35 213.26 6.35 213.26 4.8 213.27 C3.82 213.27 2.85 213.27 1.85 213.27 C0.95 213.26 0.06 213.26 -0.86 213.26 C-3.19 213.13 -3.19 213.13 -6.19 212.13 C-7.37 208.57 -7.28 205.69 -7.25 201.95 C-7.24 200.67 -7.23 199.4 -7.22 198.09 C-7.21 197.11 -7.2 196.14 -7.19 195.13 C-8.18 195.13 -9.17 195.13 -10.19 195.13 C-10.19 194.47 -10.19 193.81 -10.19 193.13 C-11.18 193.13 -12.17 193.13 -13.19 193.13 C-13.19 194.12 -13.19 195.11 -13.19 196.13 C-12.53 196.46 -11.87 196.79 -11.19 197.13 C-18.21 205.33 -27.33 212.07 -38.19 214.13 C-42.72 214.33 -47.24 214.32 -51.78 214.32 C-53.98 214.32 -56.19 214.34 -58.39 214.36 C-59.81 214.36 -61.23 214.36 -62.64 214.36 C-63.92 214.37 -65.2 214.37 -66.52 214.38 C-78.82 213.56 -89.54 206.07 -98.5 198.07 C-100.39 195.9 -101.73 193.62 -103.19 191.13 C-103.85 190.33 -104.51 189.52 -105.19 188.7 C-107.31 185.97 -108.7 183.24 -110.19 180.13 C-110.85 179.14 -111.51 178.15 -112.19 177.13 C-112.79 175.05 -112.79 175.05 -113.25 172.76 C-113.41 172.01 -113.56 171.26 -113.72 170.48 C-113.88 169.71 -114.03 168.93 -114.19 168.13 C-114.35 167.37 -114.51 166.6 -114.68 165.81 C-115.32 162.45 -115.79 159.08 -116.25 155.7 C-116.43 154.42 -116.6 153.14 -116.79 151.82 C-117.31 146.99 -117.43 142.82 -116.19 138.13 C-115.92 136.14 -115.69 134.14 -115.47 132.13 C-114.92 128.26 -113.74 124.87 -112.25 121.26 C-111.12 118.5 -110.12 115.88 -109.31 113.01 C-105.2 102.5 -93.62 90.72 -83.44 86.01 C-81.71 85.33 -79.95 84.71 -78.19 84.13 C-77.57 83.88 -76.96 83.63 -76.32 83.37 C-69.59 80.78 -63.16 80.59 -56 80.63 C-54.2 80.64 -54.2 80.64 -52.36 80.65 C-36.97 80.96 -25.89 86.67 -13.19 95.13 C-13.19 95.79 -13.19 96.45 -13.19 97.13 C-12.53 97.13 -11.87 97.13 -11.19 97.13 C-10.53 98.78 -9.87 100.43 -9.19 102.13 C-8.2 102.13 -7.21 102.13 -6.19 102.13 C-6.43 100.69 -6.43 100.69 -6.68 99.22 C-7.32 94.72 -7.33 90.27 -7.32 85.73 C-7.32 84.35 -7.32 84.35 -7.32 82.95 C-7.33 79.94 -7.32 76.93 -7.32 73.92 C-7.32 71.83 -7.32 69.73 -7.32 67.64 C-7.32 63.26 -7.32 58.88 -7.32 54.5 C-7.31 48.87 -7.32 43.25 -7.32 37.62 C-7.33 33.3 -7.32 28.98 -7.32 24.66 C-7.32 22.58 -7.32 20.51 -7.32 18.43 C-7.33 15.54 -7.32 12.65 -7.32 9.76 C-7.32 8.9 -7.32 8.04 -7.32 7.14 C-7.3 0.04 -6.99 0.01 0 0 Z M-56.19 105.13 C-58.52 105.5 -60.85 105.84 -63.19 106.13 C-63.19 106.79 -63.19 107.45 -63.19 108.13 C-64.51 108.13 -65.83 108.13 -67.19 108.13 C-67.85 108.79 -68.51 109.45 -69.19 110.13 C-69.52 109.47 -69.85 108.81 -70.19 108.13 C-70.85 108.13 -71.51 108.13 -72.19 108.13 C-72.19 108.79 -72.19 109.45 -72.19 110.13 C-72.85 110.13 -73.51 110.13 -74.19 110.13 C-73.86 111.12 -73.53 112.11 -73.19 113.13 C-74.18 113.63 -74.18 113.63 -75.19 114.13 C-75.19 114.79 -75.19 115.45 -75.19 116.13 C-75.85 116.13 -76.51 116.13 -77.19 116.13 C-78.64 118.21 -78.64 118.21 -80.19 121.13 C-80.59 121.83 -81 122.54 -81.42 123.26 C-88.31 135.25 -89.65 148.51 -87.19 162.13 C-85.65 167.27 -84.11 171.42 -80.19 175.13 C-79.75 175.92 -79.32 176.7 -78.88 177.51 C-74.88 183.72 -67.21 188.99 -60.19 191.13 C-56.62 191.48 -53.08 191.5 -49.5 191.51 C-48.09 191.54 -48.09 191.54 -46.64 191.58 C-39.72 191.61 -34.41 190.13 -28.19 187.13 C-28.19 186.47 -28.19 185.81 -28.19 185.13 C-26.87 185.13 -25.55 185.13 -24.19 185.13 C-22.28 183.46 -22.28 183.46 -20.62 181.26 C-18.51 178.63 -17.04 177.03 -14.19 175.13 C-10.51 169.1 -7.63 163.22 -7.19 156.13 C-7.03 155.5 -6.86 154.87 -6.7 154.22 C-4.11 143.59 -7.79 131.91 -13 122.63 C-15.82 118.3 -19.02 115.16 -23.19 112.13 C-24.12 111.41 -25.04 110.69 -26 109.95 C-29.62 107.89 -33.11 106.82 -37.11 105.75 C-39.19 105.13 -39.19 105.13 -40.19 104.13 C-42.7 104.03 -45.18 103.99 -47.69 104.01 C-48.39 104 -49.09 104 -49.82 104 C-53.29 103.69 -53.29 103.69 -56.19 105.13 Z M-82.19 118.13 C-81.86 118.79 -81.53 119.45 -81.19 120.13 C-80.53 119.47 -79.87 118.81 -79.19 118.13 C-80.18 118.13 -81.17 118.13 -82.19 118.13 Z M-69.19 211.13 C-69.52 211.79 -69.85 212.45 -70.19 213.13 C-69.53 213.13 -68.87 213.13 -68.19 213.13 C-68.52 212.47 -68.85 211.81 -69.19 211.13 Z " fill="#FCFBFB" transform="translate(512.1875,75.8671875)"/>
<path d="M0 0 C4.27 -0.09 8.54 -0.14 12.81 -0.19 C14.01 -0.21 15.2 -0.24 16.44 -0.26 C24.13 -0.33 30.72 0.53 38 3 C38.99 3.33 39.98 3.66 41 4 C41 4.66 41 5.32 41 6 C41.58 6.12 42.16 6.24 42.76 6.37 C49.21 8.19 53.83 12.48 57.87 17.64 C58.24 18.09 58.62 18.54 59 19 C59.33 19 59.66 19 60 19 C60.04 18.1 60.07 17.19 60.11 16.26 C60.18 15.08 60.24 13.9 60.31 12.69 C60.37 11.52 60.43 10.34 60.49 9.14 C61.04 5.74 61.3 4.97 64 3 C66.4 2.74 66.4 2.74 69.22 2.89 C70.23 2.94 71.25 2.99 72.29 3.04 C73.35 3.11 74.41 3.18 75.5 3.25 C76.56 3.3 77.62 3.36 78.71 3.41 C86.51 3.84 86.51 3.84 90 5 C90.02 18.86 90.04 32.73 90.05 46.59 C90.06 53.03 90.06 59.47 90.08 65.91 C90.09 72.12 90.09 78.33 90.09 84.54 C90.1 86.91 90.1 89.28 90.11 91.66 C90.11 94.97 90.11 98.29 90.11 101.61 C90.12 102.59 90.12 103.58 90.12 104.59 C90.12 105.49 90.12 106.4 90.12 107.34 C90.12 108.51 90.12 108.51 90.12 109.71 C89.99 112.22 89.5 114.55 89 117 C88.96 119.42 88.96 121.83 89 124.25 C89.04 126.5 89.05 128.75 89 131 C86.45 133.55 79.55 132.28 76.12 132.31 C75.01 132.34 73.89 132.37 72.75 132.4 C71.68 132.41 70.61 132.42 69.51 132.43 C68.03 132.45 68.03 132.45 66.53 132.47 C64 132 64 132 62.19 130.2 C60.46 127 60.43 123.81 60.31 120.25 C60.28 119.55 60.24 118.86 60.21 118.14 C60.13 116.43 60.06 114.71 60 113 C59.38 113.99 58.76 114.98 58.12 116 C57.42 116.99 56.72 117.98 56 119 C55.34 119 54.68 119 54 119 C54 119.66 54 120.32 54 121 C53.22 121.08 52.43 121.17 51.62 121.25 C50.76 121.5 49.89 121.75 49 122 C48.72 122.61 48.45 123.22 48.16 123.85 C46.58 126.78 44.73 127.59 41.81 129.12 C40.89 129.62 39.97 130.12 39.02 130.63 C31.07 134.23 24.11 134.31 15.44 134.25 C13.63 134.26 13.63 134.26 11.78 134.27 C10.62 134.27 9.45 134.27 8.25 134.27 C7.19 134.26 6.14 134.26 5.05 134.26 C1.76 133.98 -0.92 133.15 -4 132 C-4.75 131.78 -5.5 131.55 -6.27 131.32 C-22.14 126.52 -33.29 114.22 -41 100 C-45.77 90.44 -47.39 81.64 -48 71 C-48.33 71 -48.66 71 -49 71 C-49.03 69.35 -49.05 67.71 -49.06 66.06 C-49.07 65.15 -49.09 64.23 -49.1 63.29 C-49 61 -49 61 -48 60 C-47.71 57.03 -47.55 54.06 -47.38 51.08 C-47.01 48.05 -46.2 45.78 -45 43 C-45 42.34 -45 41.68 -45 41 C-44.34 41 -43.68 41 -43 41 C-42.91 40.44 -42.83 39.89 -42.74 39.31 C-41.65 33.42 -39.76 28.72 -36 24 C-35.34 23.67 -34.68 23.34 -34 23 C-33.87 22.39 -33.74 21.79 -33.61 21.16 C-32.81 18.32 -31.49 17.32 -29.25 15.44 C-28.57 14.86 -27.9 14.28 -27.2 13.68 C-22.82 10.34 -17.95 7.83 -13.06 5.31 C-12.47 4.99 -11.87 4.67 -11.26 4.34 C-7.33 2.33 -4.4 1.64 0 2 C0 1.34 0 0.68 0 0 Z M10 25 C8 25.68 6 26.35 4 27 C3.09 27.39 2.19 27.78 1.25 28.19 C0.51 28.46 -0.24 28.72 -1 29 C-1.66 28.67 -2.32 28.34 -3 28 C-4.56 29.31 -4.56 29.31 -6 31 C-6 31.99 -6 32.98 -6 34 C-7.36 35.73 -7.36 35.73 -9.19 37.62 C-17.32 46.62 -20.37 56.01 -20.25 68 C-20.26 68.76 -20.27 69.51 -20.27 70.29 C-20.26 75.5 -19.43 79.99 -18 85 C-17.34 85 -16.68 85 -16 85 C-15.83 85.85 -15.83 85.85 -15.66 86.73 C-13.13 95.39 -5.9 101.8 1.62 106.25 C3.3 107.12 3.3 107.12 5 108 C5.68 108.36 6.37 108.72 7.07 109.09 C11.43 110.45 15.65 110.38 20.19 110.38 C21.13 110.37 22.07 110.37 23.04 110.37 C30.04 110.25 37.23 109.82 42.43 104.55 C44 103 44 103 46.43 101.63 C53.81 96.95 57.92 88.24 60 80 C60.33 79.01 60.66 78.02 61 77 C61.26 73.48 61.23 69.96 61.25 66.44 C61.27 65.49 61.29 64.53 61.31 63.55 C61.36 54.55 59.84 46.08 54 39 C52.68 38.3 51.35 37.63 50 37 C49.3 35.68 48.63 34.35 48 33 C44.78 29.04 40.74 26.74 36 25 C32.66 24.66 32.66 24.66 30 25 C30 24.34 30 23.68 30 23 C27.42 22.95 24.83 22.91 22.25 22.88 C21.52 22.86 20.79 22.84 20.04 22.82 C16.14 22.79 13.32 22.9 10 25 Z M0 25 C0.33 25.66 0.66 26.32 1 27 C1.66 26.34 2.32 25.68 3 25 C2.01 25 1.02 25 0 25 Z M-8 31 C-7.67 31.66 -7.34 32.32 -7 33 C-6.67 32.34 -6.34 31.68 -6 31 C-6.66 31 -7.32 31 -8 31 Z M-12 35 C-12 35.66 -12 36.32 -12 37 C-12.66 37 -13.32 37 -14 37 C-13.67 37.66 -13.34 38.32 -13 39 C-11.68 38.34 -10.36 37.68 -9 37 C-9 36.34 -9 35.68 -9 35 C-9.99 35 -10.98 35 -12 35 Z M51 118 C51.33 118.66 51.66 119.32 52 120 C52.33 119.34 52.66 118.68 53 118 C52.34 118 51.68 118 51 118 Z " fill="#FBFBFB" transform="translate(281,155)"/>
<path d="M0 0 C2.07 -0.01 4.13 -0.04 6.2 -0.07 C13.55 -0.13 19.81 0.3 26.6 3.24 C27.49 3.53 28.37 3.83 29.28 4.13 C43.74 9.4 53.88 19.73 60.38 33.44 C60.78 34.37 61.18 35.29 61.6 36.24 C61.94 37 62.29 37.76 62.64 38.54 C65.4 46.31 65.87 53.6 65.73 61.8 C65.72 62.81 65.71 63.82 65.7 64.86 C65.68 67.32 65.64 69.78 65.6 72.24 C62.82 73.03 60.36 73.36 57.48 73.36 C56.66 73.36 55.85 73.36 55.01 73.36 C54.13 73.36 53.25 73.36 52.33 73.35 C51.4 73.35 50.46 73.35 49.5 73.35 C46.4 73.35 43.31 73.35 40.21 73.34 C38.06 73.34 35.92 73.33 33.77 73.33 C28.12 73.33 22.47 73.32 16.82 73.31 C11.06 73.3 5.3 73.29 -0.47 73.29 C-11.78 73.28 -23.09 73.26 -34.4 73.24 C-34.14 75.3 -33.87 77.37 -33.59 79.43 C-33.44 80.58 -33.28 81.72 -33.13 82.91 C-32.39 86.28 -31.18 88.33 -29.4 91.24 C-29.4 92.56 -29.4 93.88 -29.4 95.24 C-28.74 95.24 -28.08 95.24 -27.4 95.24 C-26.8 96.15 -26.2 97.06 -25.59 97.99 C-21.14 104.59 -13.86 108.7 -6.4 111.24 C-2.11 111.65 2.17 111.56 6.48 111.55 C8.21 111.58 8.21 111.58 9.99 111.6 C16.41 111.61 20.88 111.13 26.6 108.24 C27.92 108.24 29.24 108.24 30.6 108.24 C30.6 107.58 30.6 106.92 30.6 106.24 C32.23 105.18 33.91 104.2 35.6 103.24 C40.4 100.4 42.82 97.94 45.6 93.24 C48.92 94.41 51.44 95.39 53.6 98.24 C53.6 99.23 53.6 100.22 53.6 101.24 C55.09 101.74 55.09 101.74 56.6 102.24 C59.35 105.05 59.35 105.05 61.6 108.24 C61.55 111.94 59.29 113.87 56.75 116.36 C56 117.07 56 117.07 55.23 117.8 C54.48 118.52 54.48 118.52 53.73 119.26 C52.36 120.59 50.98 121.92 49.6 123.24 C49.07 123.8 48.54 124.36 47.99 124.94 C44.59 128.11 40.19 130.11 35.6 130.49 C34.94 130.41 34.28 130.33 33.6 130.24 C33.6 130.9 33.6 131.56 33.6 132.24 C28.89 133.43 24.29 133.42 19.46 133.44 C18.58 133.45 17.7 133.45 16.79 133.46 C14.93 133.47 13.06 133.48 11.2 133.48 C8.38 133.49 5.55 133.52 2.72 133.55 C0.91 133.56 -0.91 133.56 -2.73 133.57 C-3.56 133.58 -4.4 133.59 -5.26 133.61 C-12.9 133.58 -19.35 131.31 -26.27 128.18 C-26.99 127.86 -27.71 127.54 -28.45 127.21 C-30.4 126.24 -30.4 126.24 -33.4 124.24 C-33.4 123.58 -33.4 122.92 -33.4 122.24 C-35.05 121.91 -36.7 121.58 -38.4 121.24 C-38.4 120.58 -38.4 119.92 -38.4 119.24 C-38.97 119.02 -39.54 118.81 -40.12 118.58 C-48.47 113.66 -54.75 101.02 -57.33 91.99 C-57.85 89.87 -58.35 87.74 -58.82 85.61 C-59.17 83.3 -59.17 83.3 -60.4 82.24 C-60.52 79.74 -60.59 77.27 -60.6 74.77 C-60.61 74.01 -60.61 73.25 -60.62 72.48 C-60.63 70.87 -60.63 69.26 -60.64 67.65 C-60.65 65.21 -60.68 62.77 -60.71 60.34 C-60.72 58.77 -60.72 57.21 -60.73 55.64 C-60.74 54.92 -60.75 54.2 -60.76 53.46 C-60.74 48.18 -59.5 44.05 -57.4 39.24 C-57.12 38.57 -56.85 37.9 -56.56 37.22 C-51.37 24.73 -43.47 13.88 -31.4 7.24 C-30.59 6.72 -29.79 6.21 -28.96 5.68 C-23.94 2.86 -19.05 2.02 -13.4 1.24 C-10.77 -1.39 -3.56 0.01 0 0 Z M-25.4 33.24 C-29.34 38.6 -32.25 43.49 -32.4 50.24 C-31.31 51.55 -31.31 51.55 -28.66 51.36 C-27.44 51.36 -26.21 51.36 -24.95 51.35 C-24.28 51.35 -23.6 51.35 -22.91 51.35 C-20.68 51.35 -18.44 51.35 -16.21 51.34 C-14.66 51.34 -13.12 51.33 -11.57 51.33 C-7.49 51.33 -3.42 51.32 0.66 51.31 C4.81 51.3 8.97 51.29 13.12 51.29 C21.28 51.28 29.44 51.26 37.6 51.24 C39 45.34 37.83 41.36 34.79 36.12 C32.58 33.22 30.24 30.75 27.6 28.24 C27.09 27.68 26.57 27.13 26.04 26.55 C22.43 23.26 19.4 23.02 14.6 23.24 C14.6 22.58 14.6 21.92 14.6 21.24 C-0.8 20.56 -14.5 20.69 -25.4 33.24 Z M-19.4 24.24 C-20.39 24.74 -20.39 24.74 -21.4 25.24 C-21.4 25.9 -21.4 26.56 -21.4 27.24 C-22.06 27.24 -22.72 27.24 -23.4 27.24 C-23.07 27.9 -22.74 28.56 -22.4 29.24 C-21.74 28.91 -21.08 28.58 -20.4 28.24 C-20.4 27.58 -20.4 26.92 -20.4 26.24 C-19.74 26.24 -19.08 26.24 -18.4 26.24 C-18.73 25.58 -19.06 24.92 -19.4 24.24 Z M-57.4 40.24 C-56.4 42.24 -56.4 42.24 -56.4 42.24 Z M57.6 108.24 C57.6 109.23 57.6 110.22 57.6 111.24 C58.26 110.91 58.92 110.58 59.6 110.24 C58.94 109.58 58.28 108.92 57.6 108.24 Z M55.6 112.24 C54.12 114.22 54.12 114.22 52.6 116.24 C53.92 115.58 55.24 114.92 56.6 114.24 C56.27 113.58 55.94 112.92 55.6 112.24 Z M49.6 118.24 C48.61 119.73 48.61 119.73 47.6 121.24 C48.59 120.91 49.58 120.58 50.6 120.24 C50.27 119.58 49.94 118.92 49.6 118.24 Z " fill="#FBFBFB" transform="translate(609.3984375,156.759765625)"/>
<path d="M0 0 C4.95 0 9.9 0 15 0 C15.02 27.35 15.04 54.69 15.05 82.04 C15.06 94.73 15.06 107.43 15.08 120.13 C15.09 131.19 15.09 142.25 15.09 153.31 C15.1 159.18 15.1 165.04 15.11 170.9 C15.11 176.41 15.11 181.92 15.11 187.43 C15.11 189.46 15.12 191.48 15.12 193.51 C15.12 196.27 15.12 199.03 15.12 201.79 C15.12 203 15.12 203 15.13 204.25 C15.11 209.77 15.11 209.77 14 212 C11.71 212.08 9.42 212.14 7.12 212.19 C5.85 212.22 4.57 212.26 3.26 212.29 C2.18 212.2 1.11 212.1 0 212 C-2.42 208.36 -2.39 206.14 -2.62 201.81 C-2.74 199.9 -2.74 199.9 -2.85 197.96 C-2.9 196.98 -2.95 196.01 -3 195 C-3.99 195.87 -4.98 196.73 -6 197.62 C-7.33 198.75 -8.66 199.88 -10 201 C-10.61 201.51 -11.23 202.03 -11.86 202.56 C-17.15 206.76 -22.77 209.44 -29 212 C-30.12 212.47 -30.12 212.47 -31.27 212.94 C-38.18 215.68 -44.61 216.18 -51.94 216.19 C-52.71 216.2 -53.48 216.21 -54.28 216.22 C-59.24 216.24 -63.31 215.64 -68 214 C-68.33 213.67 -68.66 213.34 -69 213 C-69.95 212.94 -70.9 212.88 -71.88 212.81 C-81.48 211.51 -88.74 204.89 -95 198 C-95.91 197.11 -96.82 196.23 -97.75 195.31 C-101.76 191.19 -104.55 187.21 -107 182 C-107.52 181.01 -108.03 180.02 -108.56 179 C-111.22 173.46 -112.25 169.18 -112 163 C-112.66 162.67 -113.32 162.34 -114 162 C-114 152.76 -114 143.52 -114 134 C-113.34 134 -112.68 134 -112 134 C-112.19 133.45 -112.37 132.91 -112.57 132.35 C-114.19 123.58 -108.38 114.18 -104 107 C-103.42 105.99 -102.85 104.98 -102.25 103.94 C-97.44 97.66 -91.94 91.86 -85 88 C-84.18 87.49 -83.36 86.98 -82.51 86.45 C-69.17 78.74 -50.61 78.85 -35.79 81.66 C-23.37 85.14 -10.23 93.15 -3 104 C-1.69 85.35 -1.9 66.69 -2 48 C-1.67 48 -1.34 48 -1 48 C-0.67 32.16 -0.34 16.32 0 0 Z M-64 92 C-64 92.99 -64 93.98 -64 95 C-63.34 94.67 -62.68 94.34 -62 94 C-62 93.34 -62 92.68 -62 92 C-62.66 92 -63.32 92 -64 92 Z M-70 94 C-70 94.99 -70 95.98 -70 97 C-70.99 97.5 -70.99 97.5 -72 98 C-72 98.66 -72 99.32 -72 100 C-73.32 100 -74.64 100 -76 100 C-78.09 101.78 -78.09 101.78 -79.43 103.31 C-80.67 104.64 -81.97 105.91 -83.29 107.16 C-84.1 107.93 -84.91 108.7 -85.75 109.5 C-86.53 110.23 -87.31 110.96 -88.11 111.72 C-90.18 114.22 -90.66 115.81 -91 119 C-91.99 119.33 -92.98 119.66 -94 120 C-101.12 134.92 -101.87 153.21 -97.12 168.91 C-95.28 173.71 -93.03 177.84 -90 182 C-89.38 183.01 -88.76 184.02 -88.12 185.06 C-81.72 193.91 -70.83 199.88 -60.19 201.62 C-46.84 203.05 -35.03 201.02 -24 193 C-23.03 192.4 -22.06 191.8 -21.06 191.19 C-13.42 185.73 -7.67 179.48 -6 170 C-5.34 169.67 -4.68 169.34 -4 169 C-1.87 164.91 -1.58 160.84 -1.38 156.31 C-1.34 155.6 -1.3 154.89 -1.26 154.16 C-1.16 152.11 -1.08 150.05 -1 148 C-0.96 147.04 -0.91 146.07 -0.87 145.08 C-0.7 137.76 -1.49 130.52 -5 124 C-5.5 122.99 -5.5 122.99 -6.01 121.96 C-12.52 109.46 -22.49 100.28 -36 96 C-36.92 95.65 -37.84 95.3 -38.79 94.94 C-48.1 92.21 -58.69 93.83 -68 96 C-68 95.34 -68 94.68 -68 94 C-68.66 94 -69.32 94 -70 94 Z M-94 116 C-93.67 116.66 -93.34 117.32 -93 118 C-92.67 117.34 -92.34 116.68 -92 116 C-92.66 116 -93.32 116 -94 116 Z M-7 192 C-8.58 193.56 -8.58 193.56 -10.12 195.5 C-10.66 196.15 -11.2 196.8 -11.76 197.47 C-12.17 197.97 -12.58 198.48 -13 199 C-9.26 197.32 -7.44 195.31 -5 192 C-5.66 192 -6.32 192 -7 192 Z M-14 199 C-13 201 -13 201 -13 201 Z " fill="#FAFAFA" transform="translate(1224,78)"/>
<path d="M0 0 C4.12 -0.06 8.25 -0.09 12.38 -0.12 C13.55 -0.14 14.73 -0.16 15.94 -0.18 C17.62 -0.19 17.62 -0.19 19.34 -0.2 C20.37 -0.21 21.41 -0.22 22.48 -0.23 C25 0 25 0 27 2 C27.28 4.18 27.28 4.18 27.32 6.91 C27.34 7.93 27.36 8.95 27.38 10 C27.39 11.11 27.4 12.21 27.41 13.35 C27.43 14.48 27.45 15.61 27.47 16.77 C27.53 20.39 27.58 24.01 27.62 27.62 C27.66 30.07 27.7 32.52 27.74 34.97 C27.84 40.98 27.92 46.99 28 53 C29.94 53 29.94 53 31.93 52.99 C33.65 52.99 35.37 52.99 37.09 52.98 C37.94 52.98 38.79 52.98 39.67 52.98 C54.71 52.96 54.71 52.96 58 54 C59.84 56.91 60.24 59.14 60.2 62.55 C60.19 63.39 60.18 64.24 60.18 65.11 C60.15 66.41 60.15 66.41 60.12 67.75 C60.12 68.64 60.11 69.53 60.1 70.44 C60.07 72.63 60.04 74.81 60 77 C59.04 77.03 58.07 77.05 57.08 77.08 C53.51 77.17 49.95 77.27 46.38 77.37 C44.84 77.42 43.29 77.46 41.75 77.5 C39.53 77.55 37.31 77.62 35.1 77.68 C34.4 77.7 33.71 77.72 32.99 77.73 C29.71 77.57 29.71 77.57 27 79 C26.89 81.01 26.85 83.03 26.84 85.05 C26.83 86.34 26.82 87.64 26.81 88.97 C26.8 90.4 26.8 91.83 26.8 93.25 C26.79 94.71 26.79 96.17 26.78 97.63 C26.77 100.7 26.76 103.77 26.76 106.83 C26.75 110.75 26.73 114.66 26.7 118.58 C26.68 121.6 26.68 124.62 26.68 127.64 C26.67 129.08 26.67 130.52 26.65 131.96 C26.44 145.52 26.44 145.52 33 157 C33.99 157.33 34.98 157.66 36 158 C36 158.66 36 159.32 36 160 C41.63 158.85 46.83 157.59 52 155 C55.56 157.29 57.14 159.63 59.06 163.38 C60.54 166.23 62 169 63.72 171.71 C65 174 65 174 64.44 176.19 C60.86 180.7 53.37 182.56 48 184 C43.63 184.46 39.33 184.43 34.94 184.31 C33.81 184.3 32.69 184.29 31.53 184.28 C23.34 184.17 23.34 184.17 21 183 C21 182.34 21 181.68 21 181 C19.99 180.96 18.98 180.92 17.94 180.88 C13.07 180.14 10.19 177.64 7 174 C-2.41 160.69 -2.17 147.24 -2.08 131.43 C-2.06 129.27 -2.06 127.11 -2.05 124.95 C-2.04 120.38 -2.02 115.82 -2 111.25 C-1.98 105.91 -1.96 100.57 -1.94 95.23 C-1.94 93.1 -1.93 90.97 -1.91 88.84 C-1.91 87.56 -1.91 86.28 -1.9 84.97 C-1.9 83.83 -1.89 82.7 -1.89 81.54 C-1.71 79.06 -1.71 79.06 -3 78 C-4.63 77.84 -6.27 77.75 -7.91 77.68 C-8.8 77.65 -9.69 77.61 -10.61 77.57 C-11.75 77.53 -12.89 77.48 -14.06 77.44 C-17.67 77.29 -21.28 77.15 -25 77 C-25 69.41 -25 61.82 -25 54 C-17.41 53.67 -9.82 53.34 -2 53 C-2 36.17 -2 19.34 -2 2 C-1.34 1.67 -0.68 1.34 0 1 C0 0.67 0 0.34 0 0 Z " fill="#FCFCFC" transform="translate(60,105)"/>
<path d="M0 0 C1.11 0.01 2.22 0.01 3.36 0.02 C4.5 0.04 5.64 0.05 6.82 0.07 C8.57 0.08 8.57 0.08 10.35 0.1 C13.22 0.12 16.08 0.15 18.95 0.2 C18.95 0.86 18.95 1.52 18.95 2.2 C19.85 2.32 20.76 2.44 21.7 2.57 C24.54 3.12 26.47 3.77 28.95 5.2 C28.95 5.86 28.95 6.52 28.95 7.2 C29.94 7.2 30.93 7.2 31.95 7.2 C31.37 10.67 30.48 13.49 28.88 16.62 C28.48 17.42 28.07 18.21 27.66 19.03 C27.24 19.85 26.82 20.67 26.38 21.51 C25.75 22.76 25.75 22.76 25.1 24.04 C24.05 26.1 23 28.15 21.95 30.2 C19.03 29.51 16.59 28.61 13.95 27.2 C13.95 26.54 13.95 25.88 13.95 25.2 C11.31 25.2 8.67 25.2 5.95 25.2 C5.95 24.54 5.95 23.88 5.95 23.2 C3.23 23.57 0.53 23.97 -2.18 24.38 C-2.94 24.48 -3.7 24.59 -4.48 24.69 C-10.15 25.59 -12.83 27.36 -17.05 31.2 C-18.04 31.2 -19.03 31.2 -20.05 31.2 C-20.14 31.77 -20.22 32.35 -20.3 32.95 C-21.05 35.2 -21.05 35.2 -22.87 36.82 C-26.16 40.4 -27.45 44.65 -29.05 49.2 C-29.4 50.08 -29.74 50.97 -30.09 51.88 C-31.17 55.6 -31.36 59.02 -31.37 62.85 C-31.38 63.6 -31.39 64.34 -31.4 65.1 C-31.43 67.54 -31.45 69.97 -31.47 72.41 C-31.49 74.1 -31.51 75.8 -31.53 77.49 C-31.58 81.94 -31.62 86.39 -31.66 90.84 C-31.7 95.38 -31.75 99.93 -31.8 104.47 C-31.89 113.38 -31.98 122.29 -32.05 131.2 C-40.96 131.2 -49.87 131.2 -59.05 131.2 C-60.3 128.7 -60.18 127.02 -60.18 124.22 C-60.19 122.65 -60.19 122.65 -60.19 121.04 C-60.19 119.88 -60.19 118.72 -60.18 117.53 C-60.19 116.31 -60.19 115.09 -60.19 113.84 C-60.19 110.5 -60.19 107.16 -60.19 103.82 C-60.19 100.33 -60.19 96.83 -60.19 93.34 C-60.19 87.48 -60.19 81.61 -60.19 75.75 C-60.18 68.96 -60.18 62.18 -60.19 55.39 C-60.19 49.57 -60.19 43.75 -60.19 37.93 C-60.19 34.45 -60.19 30.97 -60.19 27.5 C-60.19 23.62 -60.19 19.74 -60.18 15.87 C-60.19 14.13 -60.19 14.13 -60.19 12.35 C-60.19 11.3 -60.18 10.25 -60.18 9.17 C-60.18 8.25 -60.18 7.33 -60.18 6.39 C-60.05 4.2 -60.05 4.2 -59.05 2.2 C-52.12 2.2 -45.19 2.2 -38.05 2.2 C-38.05 2.53 -38.05 2.86 -38.05 3.2 C-35.08 3.69 -35.08 3.69 -32.05 4.2 C-32.05 8.49 -32.05 12.78 -32.05 17.2 C-26.87 12.79 -26.87 12.79 -22.05 8.01 C-16.16 2.66 -7.85 -0.08 0 0 Z M-7.05 21.2 C-6.05 23.2 -6.05 23.2 -6.05 23.2 Z M-25.05 33.2 C-24.72 33.86 -24.39 34.52 -24.05 35.2 C-23.39 34.54 -22.73 33.88 -22.05 33.2 C-23.04 33.2 -24.03 33.2 -25.05 33.2 Z " fill="#FCFCFC" transform="translate(201.0546875,154.8046875)"/>
<path d="M0 0 C1.54 -0.04 1.54 -0.04 3.11 -0.07 C9.68 -0.1 14.87 0.91 20.95 3.42 C23.07 4.27 25.09 4.88 27.31 5.38 C27.31 6.03 27.31 6.69 27.31 7.38 C28.3 7.65 28.3 7.65 29.31 7.94 C39.08 12.62 44 21.28 48.45 30.8 C50.5 36.9 50.45 43.17 50.43 49.52 C50.43 50.41 50.43 51.3 50.43 52.22 C50.43 55.13 50.42 58.05 50.41 60.96 C50.41 63 50.41 65.03 50.41 67.06 C50.4 72.38 50.39 77.71 50.38 83.04 C50.37 88.48 50.37 93.93 50.36 99.37 C50.35 110.04 50.33 120.71 50.31 131.38 C48 131.4 45.69 131.42 43.38 131.44 C42.09 131.45 40.8 131.46 39.47 131.47 C36.31 131.38 36.31 131.38 35.31 130.38 C35.2 127.62 35.16 124.9 35.15 122.14 C35.15 121.28 35.14 120.42 35.14 119.53 C35.13 117.64 35.12 115.76 35.11 113.88 C35.1 110.89 35.08 107.91 35.06 104.92 C35 96.43 34.94 87.94 34.91 79.45 C34.89 74.26 34.85 69.07 34.81 63.89 C34.8 61.91 34.79 59.94 34.78 57.96 C34.78 55.19 34.76 52.42 34.73 49.64 C34.73 48.83 34.74 48.03 34.74 47.2 C34.62 38.68 32.07 29.84 26.31 23.38 C16.4 15.58 7.71 13.75 -4.69 14.38 C-5.96 14.43 -5.96 14.43 -7.26 14.48 C-14.71 15.34 -19.9 19.72 -25.68 24.16 C-28.69 26.38 -28.69 26.38 -31.69 27.38 C-32.02 29.03 -32.35 30.68 -32.69 32.38 C-33.35 32.38 -34.01 32.38 -34.69 32.38 C-35.02 33.37 -35.35 34.35 -35.69 35.38 C-36.35 35.38 -37.01 35.38 -37.69 35.38 C-37.81 36.07 -37.93 36.77 -38.06 37.49 C-38.74 40.6 -39.72 43.52 -40.71 46.55 C-43.21 55.24 -43.29 63.59 -43.3 72.59 C-43.31 74.29 -43.33 76 -43.35 77.7 C-43.39 82.15 -43.41 86.59 -43.43 91.03 C-43.45 95.58 -43.49 100.14 -43.53 104.69 C-43.6 113.58 -43.65 122.48 -43.69 131.38 C-47.98 131.38 -52.27 131.38 -56.69 131.38 C-57.69 128.37 -57.81 126.4 -57.81 123.27 C-57.81 122.21 -57.81 121.16 -57.81 120.07 C-57.81 118.91 -57.8 117.75 -57.8 116.56 C-57.8 115.34 -57.8 114.12 -57.8 112.86 C-57.8 109.52 -57.8 106.17 -57.79 102.83 C-57.78 99.33 -57.78 95.84 -57.78 92.34 C-57.78 85.72 -57.77 79.11 -57.76 72.49 C-57.75 64.95 -57.74 57.41 -57.74 49.88 C-57.73 34.38 -57.71 18.88 -57.69 3.38 C-50.76 3.87 -50.76 3.87 -43.69 4.38 C-43.36 9.99 -43.03 15.59 -42.69 21.38 C-40.79 19.35 -38.89 17.33 -36.94 15.25 C-31.19 9.35 -25.46 5.34 -17.69 2.38 C-16.39 1.82 -16.39 1.82 -15.07 1.25 C-10.05 -0.05 -5.16 0.01 0 0 Z M-42.69 22.38 C-41.69 24.38 -41.69 24.38 -41.69 24.38 Z " fill="#FAFAFA" transform="translate(1029.6875,158.625)"/>
<path d="M0 0 C1.19 -0.01 2.39 -0.02 3.62 -0.03 C5.57 -0.04 5.57 -0.04 7.56 -0.04 C8.9 -0.05 10.24 -0.05 11.58 -0.06 C14.39 -0.07 17.2 -0.08 20.01 -0.08 C23.62 -0.08 27.22 -0.11 30.83 -0.14 C33.6 -0.16 36.36 -0.16 39.13 -0.16 C41.11 -0.17 43.08 -0.19 45.06 -0.2 C46.86 -0.2 46.86 -0.2 48.69 -0.2 C49.75 -0.2 50.81 -0.2 51.9 -0.21 C53.14 -0.02 53.14 -0.02 54.41 0.16 C56.72 3.63 56.66 4.96 56.67 9.05 C56.68 10.27 56.68 11.48 56.69 12.72 C56.68 14.03 56.68 15.34 56.68 16.69 C56.68 18.05 56.68 19.4 56.68 20.76 C56.68 23.6 56.68 26.44 56.67 29.28 C56.66 32.93 56.67 36.57 56.68 40.21 C56.69 43.01 56.68 45.81 56.68 48.61 C56.68 50.61 56.68 52.6 56.69 54.6 C56.68 56.41 56.68 56.41 56.67 58.27 C56.67 59.34 56.67 60.4 56.66 61.5 C56.41 64.16 56.41 64.16 54.41 67.16 C51.85 67.56 51.85 67.56 48.58 67.59 C46.75 67.62 46.75 67.62 44.88 67.65 C43.55 67.66 42.21 67.67 40.87 67.67 C39.51 67.69 38.14 67.71 36.78 67.73 C33.18 67.77 29.59 67.8 26 67.83 C22.33 67.86 18.66 67.91 15 67.95 C7.8 68.04 0.61 68.11 -6.59 68.16 C-6.59 67.17 -6.59 66.18 -6.59 65.16 C-10.55 64.83 -14.51 64.5 -18.59 64.16 C-18.59 63.83 -18.59 63.5 -18.59 63.16 C-16.96 63.13 -15.34 63.11 -13.71 63.1 C-12.81 63.09 -11.9 63.08 -10.97 63.06 C-8.59 63.16 -8.59 63.16 -6.59 64.16 C-6.59 63.37 -6.59 62.59 -6.6 61.78 C-6.62 54.37 -6.63 46.97 -6.64 39.57 C-6.65 35.76 -6.65 31.96 -6.67 28.15 C-6.68 24.48 -6.68 20.81 -6.68 17.14 C-6.69 15.74 -6.69 14.34 -6.7 12.93 C-6.7 10.98 -6.7 9.02 -6.7 7.06 C-6.71 5.94 -6.71 4.82 -6.71 3.67 C-6.49 -0.96 -4.09 0.03 0 0 Z " fill="#AF251B" transform="translate(829.589599609375,95.8388671875)"/>
<path d="M0 0 C0.66 0.33 1.32 0.66 2 1 C3.91 1.12 5.82 1.18 7.73 1.21 C8.94 1.23 10.14 1.25 11.37 1.27 C13.33 1.29 13.33 1.29 15.32 1.32 C16.66 1.34 18.01 1.36 19.35 1.38 C22.88 1.43 26.42 1.48 29.95 1.53 C33.56 1.58 37.16 1.64 40.77 1.69 C47.85 1.8 54.92 1.9 62 2 C63.03 5.1 63.13 7.27 63.15 10.53 C63.15 11.66 63.16 12.79 63.16 13.95 C63.17 15.18 63.17 16.4 63.17 17.66 C63.17 19.54 63.17 19.54 63.18 21.46 C63.18 24.11 63.19 26.76 63.19 29.41 C63.19 32.81 63.2 36.21 63.22 39.61 C63.23 42.86 63.23 46.1 63.23 49.34 C63.24 50.57 63.24 51.79 63.25 53.05 C63.25 54.18 63.25 55.31 63.24 56.47 C63.24 57.47 63.25 58.47 63.25 59.5 C63 62 63 62 61 65 C58.44 65.36 58.44 65.36 55.17 65.34 C53.95 65.34 52.73 65.34 51.47 65.34 C50.14 65.32 48.8 65.31 47.46 65.29 C46.1 65.29 44.73 65.28 43.37 65.28 C39.77 65.27 36.18 65.24 32.59 65.21 C28.92 65.18 25.25 65.16 21.59 65.15 C14.39 65.11 7.2 65.06 0 65 C-0.01 64.27 -0.02 63.53 -0.03 62.77 C-0.13 55.86 -0.23 48.94 -0.34 42.03 C-0.39 38.47 -0.45 34.91 -0.5 31.36 C-0.55 27.27 -0.62 23.19 -0.68 19.1 C-0.7 17.82 -0.72 16.54 -0.73 15.22 C-0.75 14.04 -0.77 12.86 -0.79 11.64 C-0.81 10.6 -0.83 9.56 -0.84 8.48 C-0.84 6 -0.84 6 -2 4 C-1.06 1.88 -1.06 1.88 0 0 Z " fill="#AF251B" transform="translate(823,224)"/>
<path d="M0 0 C4.95 0.33 9.9 0.66 15 1 C14.67 42.91 14.34 84.82 14 128 C9.71 128 5.42 128 1 128 C-0 125 -0.12 123.03 -0.12 119.89 C-0.12 118.84 -0.12 117.78 -0.12 116.69 C-0.12 115.54 -0.12 114.38 -0.11 113.18 C-0.11 111.97 -0.11 110.75 -0.11 109.49 C-0.11 106.14 -0.11 102.8 -0.1 99.45 C-0.1 95.96 -0.09 92.46 -0.09 88.97 C-0.09 82.35 -0.08 75.73 -0.07 69.11 C-0.06 61.58 -0.06 54.04 -0.05 46.5 C-0.04 31 -0.02 15.5 0 0 Z " fill="#FCFCFC" transform="translate(915,160)"/>
<path d="M0 0 C3.5 1.81 3.5 1.81 6 4 C6 4.99 6 5.98 6 7 C6.66 7 7.32 7 8 7 C8.76 17.59 8.76 17.59 6.25 22.25 C1.25 24.94 -3.45 24.83 -9 24 C-12.32 22.21 -13.48 20.92 -15.31 17.69 C-16.22 14.15 -16.5 11.65 -16 8 C-11.82 1.54 -7.87 -1.08 0 0 Z " fill="#F8F8F8" transform="translate(927,82)"/>
<path d="M0 0 C19.8 0 39.6 0 60 0 C60 0.33 60 0.66 60 1 C40.2 1 20.4 1 0 1 C0 0.67 0 0.34 0 0 Z " fill="#000100" transform="translate(611,230)"/>
<path d="M0 0 C19.8 0 39.6 0 60 0 C60 0.33 60 0.66 60 1 C40.2 1 20.4 1 0 1 C0 0.67 0 0.34 0 0 Z " fill="#AF251B" transform="translate(822,94)"/>
<path d="M0 0 C0.33 0 0.66 0 1 0 C1 19.47 1 38.94 1 59 C0.67 59 0.34 59 0 59 C0 39.53 0 20.06 0 0 Z " fill="#FDFDFD" transform="translate(700,163)"/>
<path d="M0 0 C18.48 0 36.96 0 56 0 C56 0.33 56 0.66 56 1 C37.52 1 19.04 1 0 1 C0 0.67 0 0.34 0 0 Z " fill="#AF251B" transform="translate(826,224)"/>
<path d="M0 0 C16.83 0 33.66 0 51 0 C51 0.33 51 0.66 51 1 C34.17 1 17.34 1 0 1 C0 0.67 0 0.34 0 0 Z " fill="#FDFDFD" transform="translate(705,94)"/>
<path d="M0 0 C0.33 0 0.66 0 1 0 C1 14.19 1 28.38 1 43 C0.67 43 0.34 43 0 43 C0 28.81 0 14.62 0 0 Z " fill="#AF251B" transform="translate(821,233)"/>
<path d="M0 0 C0.33 0 0.66 0 1 0 C1 14.19 1 28.38 1 43 C0.67 43 0.34 43 0 43 C0 28.81 0 14.62 0 0 Z " fill="#AF251B" transform="translate(821,95)"/>
<path d="M0 0 C0.33 0 0.66 0 1 0 C1 12.21 1 24.42 1 37 C0.67 37 0.34 37 0 37 C0 24.79 0 12.58 0 0 Z " fill="#FDFDFD" transform="translate(1222,85)"/>
<path d="M0 0 C7.92 0 15.84 0 24 0 C24 0.33 24 0.66 24 1 C16.08 1 8.16 1 0 1 C0 0.67 0 0.34 0 0 Z " fill="#FDFDFD" transform="translate(34,157)"/>
<path d="M0 0 C7.59 0 15.18 0 23 0 C23 0.33 23 0.66 23 1 C15.41 1 7.82 1 0 1 C0 0.67 0 0.34 0 0 Z " fill="#000100" transform="translate(605,291)"/>
<path d="M0 0 C7.59 0 15.18 0 23 0 C23 0.33 23 0.66 23 1 C15.41 1 7.82 1 0 1 C0 0.67 0 0.34 0 0 Z " fill="#000100" transform="translate(577,230)"/>
<path d="M0 0 C5.94 0 11.88 0 18 0 C18 0.33 18 0.66 18 1 C12.06 1 6.12 1 0 1 C0 0.67 0 0.34 0 0 Z " fill="#000100" transform="translate(449,291)"/>
<path d="M0 0 C3.63 0 7.26 0 11 0 C11 0.33 11 0.66 11 1 C7.37 1 3.74 1 0 1 C0 0.67 0 0.34 0 0 Z " fill="#FDFDFD" transform="translate(1224,76)"/>
<path d="M0 0 C0.33 0 0.66 0 1 0 C1 3.3 1 6.6 1 10 C0.67 10 0.34 10 0 10 C0 6.7 0 3.4 0 0 Z " fill="#000100" transform="translate(370,272)"/>
<path d="M0 0 C2.97 0 5.94 0 9 0 C9 0.33 9 0.66 9 1 C6.03 1 3.06 1 0 1 C0 0.67 0 0.34 0 0 Z " fill="#FDFDFD" transform="translate(916,159)"/>
<path d="M0 0 C2.97 0 5.94 0 9 0 C9 0.33 9 0.66 9 1 C6.03 1 3.06 1 0 1 C0 0.67 0 0.34 0 0 Z " fill="#000100" transform="translate(919,106)"/>
<path d="M0 0 C2.64 0 5.28 0 8 0 C8 0.33 8 0.66 8 1 C5.36 1 2.72 1 0 1 C0 0.67 0 0.34 0 0 Z " fill="#FDFDFD" transform="translate(777,159)"/>
<path d="M0 0 C0.33 0 0.66 0 1 0 C1 2.31 1 4.62 1 7 C0.67 7 0.34 7 0 7 C0 4.69 0 2.38 0 0 Z " fill="#FDFDFD" transform="translate(700,260)"/>
<path d="M0 0 C0.66 0.66 1.32 1.32 2 2 C0.68 2 -0.64 2 -2 2 C-1.34 1.34 -0.68 0.68 0 0 Z " fill="#E8E8E7" transform="translate(278,184)"/>
<path d="M0 0 C0.33 0 0.66 0 1 0 C1 2.31 1 4.62 1 7 C0.67 7 0.34 7 0 7 C0 4.69 0 2.38 0 0 Z " fill="#FDFDFD" transform="translate(700,142)"/>
<path d="M0 0 C0.33 0 0.66 0 1 0 C1 1.98 1 3.96 1 6 C0.67 6 0.34 6 0 6 C0 4.02 0 2.04 0 0 Z " fill="#FDFDFD" transform="translate(1222,78)"/>
<path d="M0 0 C0.33 0 0.66 0 1 0 C1 1.65 1 3.3 1 5 C0.67 5 0.34 5 0 5 C0 3.35 0 1.7 0 0 Z " fill="#FDFDFD" transform="translate(700,272)"/>
<path d="M0 0 C0.33 0 0.66 0 1 0 C1 1.65 1 3.3 1 5 C0.67 5 0.34 5 0 5 C0 3.35 0 1.7 0 0 Z " fill="#FDFDFD" transform="translate(700,250)"/>
<path d="M0 0 C0.33 0 0.66 0 1 0 C1 1.65 1 3.3 1 5 C0.67 5 0.34 5 0 5 C0 3.35 0 1.7 0 0 Z " fill="#FDFDFD" transform="translate(700,132)"/>
<path d="M0 0 C4 1 4 1 4 1 Z " fill="#FDFDFD" transform="translate(764,159)"/>
<path d="M0 0 C3 1 3 1 3 1 Z " fill="#FDFDFD" transform="translate(799,159)"/>
<path d="M0 0 C3 1 3 1 3 1 Z " fill="#FDFDFD" transform="translate(793,159)"/>
<path d="" fill="#FDFDFD" transform="translate(0,0)"/>
<path d="" fill="#FDFDFD" transform="translate(0,0)"/>
<path d="" fill="#FDFDFD" transform="translate(0,0)"/>
<path d="" fill="#FDFDFD" transform="translate(0,0)"/>
<path d="" fill="#FDFDFD" transform="translate(0,0)"/>
<path d="" fill="#FDFDFD" transform="translate(0,0)"/>
<path d="" fill="#FDFDFD" transform="translate(0,0)"/>
<path d="" fill="#FDFDFD" transform="translate(0,0)"/>
<path d="" fill="#FDFDFD" transform="translate(0,0)"/>
<path d="" fill="#FDFDFD" transform="translate(0,0)"/>
<path d="" fill="#FDFDFD" transform="translate(0,0)"/>
<path d="" fill="#000100" transform="translate(0,0)"/>
<path d="" fill="#000100" transform="translate(0,0)"/>
<path d="" fill="#000100" transform="translate(0,0)"/>
<path d="" fill="#000100" transform="translate(0,0)"/>
<path d="" fill="#FDFDFD" transform="translate(0,0)"/>
<path d="" fill="#FDFDFD" transform="translate(0,0)"/>
<path d="" fill="#AF251B" transform="translate(0,0)"/>
<path d="" fill="#FDFDFD" transform="translate(0,0)"/>
<path d="" fill="#FDFDFD" transform="translate(0,0)"/>
<path d="" fill="#FDFDFD" transform="translate(0,0)"/>
<path d="" fill="#FDFDFD" transform="translate(0,0)"/>
<path d="" fill="#CECDCB" transform="translate(0,0)"/>
<path d="" fill="#FDFDFD" transform="translate(0,0)"/>
<path d="" fill="#CECDCB" transform="translate(0,0)"/>
<path d="" fill="#FDFDFD" transform="translate(0,0)"/>
<path d="" fill="#000100" transform="translate(0,0)"/>
<path d="" fill="#CECDCB" transform="translate(0,0)"/>
<path d="" fill="#FDFDFD" transform="translate(0,0)"/>
<path d="" fill="#CECDCB" transform="translate(0,0)"/>
<path d="" fill="#FDFDFD" transform="translate(0,0)"/>
<path d="" fill="#FDFDFD" transform="translate(0,0)"/>
<path d="" fill="#FDFDFD" transform="translate(0,0)"/>
<path d="" fill="#AF251B" transform="translate(0,0)"/>
<path d="" fill="#FDFDFD" transform="translate(0,0)"/>
<path d="" fill="#FDFDFD" transform="translate(0,0)"/>
<path d="" fill="#FDFDFD" transform="translate(0,0)"/>
<path d="" fill="#FDFDFD" transform="translate(0,0)"/>
</svg>
